<svg width="19" height="21" viewBox="0 0 19 21" fill="none" xmlns="http://www.w3.org/2000/svg">
<path d="M12.5353 15.5H6.49579M12.5353 15.5H17.5682L16.1539 14.095C15.964 13.9063 15.8133 13.6822 15.7106 13.4357C15.6078 13.1891 15.555 12.9249 15.555 12.658V9.5C15.5551 8.25894 15.168 7.04834 14.447 6.03489C13.7259 5.02144 12.7064 4.25496 11.5287 3.841V3.5C11.5287 2.96957 11.3166 2.46086 10.939 2.08579C10.5615 1.71071 10.0494 1.5 9.51552 1.5C8.9816 1.5 8.46955 1.71071 8.092 2.08579C7.71446 2.46086 7.50236 2.96957 7.50236 3.5V3.841C5.15704 4.665 3.47605 6.888 3.47605 9.5V12.659C3.47605 13.197 3.26064 13.714 2.87713 14.095L1.46289 15.5H6.49579H12.5353ZM12.5353 15.5V16.5C12.5353 17.2956 12.2171 18.0587 11.6508 18.6213C11.0845 19.1839 10.3164 19.5 9.51552 19.5C8.71464 19.5 7.94656 19.1839 7.38025 18.6213C6.81393 18.0587 6.49579 17.2956 6.49579 16.5V15.5H12.5353Z" stroke="#2D374F" stroke-width="1.7" stroke-linecap="round" stroke-linejoin="round"/>
</svg>
