<svg width="156" height="124" viewBox="0 0 156 124" fill="none" xmlns="http://www.w3.org/2000/svg">
<path d="M98.7063 61.8258L71.1945 -6.6099C63.7569 -25.1109 41.088 -31.9088 24.8771 -20.4994L-43.5509 27.6611C-66.2818 43.6594 -57.6741 79.395 -30.1062 83.4776L14.8335 90.1329C25.8144 91.7591 36.6323 94.373 47.1561 97.9428L60.4465 102.451C85.3506 110.899 108.537 86.2792 98.7063 61.8258Z" fill="url(#paint0_linear_1_609)" fill-opacity="0.3"/>
<path d="M76.2574 36.4484L56.6099 9.75056C44.8207 -6.26919 21.1558 -7.06698 8.28233 8.12135L-8.64806 28.096C-26.6793 49.3696 -9.47933 81.722 18.2249 78.6427L26.1606 77.7607C35.3452 76.7398 44.6024 76.5495 53.8195 77.1921C75.5973 78.7102 89.1919 54.0244 76.2574 36.4484Z" fill="url(#paint1_linear_1_609)" fill-opacity="0.3"/>
<defs>
<linearGradient id="paint0_linear_1_609" x1="63.7619" y1="91.4085" x2="-12.0856" y2="18.1193" gradientUnits="userSpaceOnUse">
<stop stop-color="#84E9FF"/>
<stop offset="1" stop-color="white" stop-opacity="0"/>
</linearGradient>
<linearGradient id="paint1_linear_1_609" x1="62.0927" y1="69.5376" x2="-2.99587" y2="32.6861" gradientUnits="userSpaceOnUse">
<stop stop-color="#9BDBFF"/>
<stop offset="1" stop-color="white" stop-opacity="0"/>
</linearGradient>
</defs>
</svg>
