<svg width="20" height="20" viewBox="0 0 20 20" fill="none" xmlns="http://www.w3.org/2000/svg">
<path fill-rule="evenodd" clip-rule="evenodd" d="M9.47266 0.0107723C7.44609 0.232019 5.71641 1.42022 4.84062 3.1927C4.5041 3.87376 4.3309 4.48946 4.25504 5.2743C4.12992 6.56832 4.46629 7.86351 5.22586 9.01263C5.47027 9.38234 6.09926 10.056 6.43703 10.3099C6.55973 10.4021 6.67488 10.4897 6.69289 10.5046C6.7109 10.5194 6.5527 10.5985 6.34133 10.6803C3.69305 11.7048 1.50918 13.9752 0.565508 16.6849C0.235078 17.6337 0.00402344 18.9218 0.000625 19.8339L0 20H0.777734H1.55547L1.57852 19.658C1.66043 18.4423 1.87289 17.532 2.29918 16.5699C2.79066 15.4608 3.56559 14.41 4.45258 13.6503C5.52527 12.7314 6.63465 12.1487 7.94922 11.8139C8.27391 11.7312 9.02668 11.5917 9.04941 11.6101C9.05297 11.6129 8.72266 12.9514 8.31539 14.5844L7.57484 17.5535L8.78742 18.7669L10 19.9803L11.2126 18.7669L12.4252 17.5535L11.6846 14.5844C11.2773 12.9514 10.947 11.6129 10.9506 11.6101C10.9733 11.5917 11.7261 11.7312 12.0508 11.8139C14.8471 12.5262 17.0611 14.5754 17.9898 17.3107C18.2227 17.9965 18.3598 18.7421 18.4215 19.658L18.4445 20H19.2223H20L19.9994 19.8339C19.996 18.9218 19.7649 17.6337 19.4345 16.6849C18.4908 13.9752 16.307 11.7048 13.6587 10.6803C13.4473 10.5985 13.2891 10.5194 13.3071 10.5046C13.3251 10.4897 13.4403 10.4021 13.563 10.3099C13.9007 10.056 14.5297 9.38234 14.7741 9.01263C15.6978 7.61529 15.9898 5.99937 15.6056 4.41155C15.0709 2.20162 13.2432 0.475234 11.0219 0.0817589C10.6807 0.0213265 9.76172 -0.0208121 9.47266 0.0107723ZM10.6608 1.60973C12.4711 1.90353 13.8891 3.3319 14.1608 5.13541C14.2291 5.58877 14.2328 5.83512 14.1781 6.28058C13.9737 7.94545 12.7648 9.36334 11.1648 9.8151C8.66828 10.5198 6.1368 8.84517 5.82191 6.28058C5.76723 5.83512 5.77094 5.58877 5.83922 5.13541C6.18582 2.83437 8.36918 1.23783 10.6608 1.60973ZM10.36 15.7295L10.6996 17.0878L10.3498 17.4394L10 17.7909L9.6502 17.4394L9.30039 17.0878L9.63996 15.7295C9.82676 14.9823 9.98875 14.3711 10 14.3711C10.0112 14.3711 10.1732 14.9823 10.36 15.7295Z" fill="#A7B3C3"/>
</svg>
