<svg width="100%" height="100%" viewBox="0 0 28 25" fill="none" xmlns="http://www.w3.org/2000/svg">
<path d="M0.762695 5.96947C0.762695 4.21123 2.18804 2.78589 3.94628 2.78589H22.4967C24.2549 2.78589 25.6802 4.21123 25.6802 5.96947H0.762695Z" fill="#7452D6"/>
<rect x="4.40237" y="0.325195" width="2.14444" height="4.31707" rx="1" fill="#7452D6"/>
<rect x="20.2666" y="0.325195" width="2.14444" height="4.31707" rx="1" fill="#7452D6"/>
<path fill-rule="evenodd" clip-rule="evenodd" d="M25.6802 7.55151H0.762695V17.897C0.762695 20.1061 2.55356 21.897 4.7627 21.897H17.0578C16.6721 21.078 16.4562 20.1616 16.4562 19.1942C16.4562 15.7166 19.2457 12.8974 22.6866 12.8974C23.7716 12.8974 24.7918 13.1777 25.6802 13.6705V7.55151Z" fill="#7452D6"/>
<path fill-rule="evenodd" clip-rule="evenodd" d="M22.686 24.325C25.4897 24.325 27.7626 22.0278 27.7626 19.1942C27.7626 16.3606 25.4897 14.0635 22.686 14.0635C19.8823 14.0635 17.6094 16.3606 17.6094 19.1942C17.6094 22.0278 19.8823 24.325 22.686 24.325ZM24.9646 18.1444C25.1442 17.9346 25.1196 17.619 24.9098 17.4394C24.7 17.2599 24.3844 17.2844 24.2048 17.4942L22.2057 19.8304L21.1477 18.7595C20.9536 18.563 20.637 18.5611 20.4406 18.7552C20.2441 18.9493 20.2422 19.2658 20.4363 19.4623L21.7235 20.7652C22.0115 21.0567 22.487 21.0397 22.7533 20.7284L24.9646 18.1444Z" fill="#7452D6"/>
</svg>
