<svg width="19" height="20" viewBox="0 0 19 20" fill="none" xmlns="http://www.w3.org/2000/svg">
<path fill-rule="evenodd" clip-rule="evenodd" d="M0.340811 0.0624545C0.161193 0.154615 0.0431729 0.346242 0.0147132 0.591938C0.00178738 0.703671 -0.00365908 4.39029 0.00259285 8.78442C0.0139077 16.6928 0.0147899 16.7751 0.0907336 16.9064C0.132925 16.9794 0.216156 17.076 0.275722 17.1212L0.383999 17.2035L4.90192 17.2137L9.41988 17.224L9.44681 17.6435C9.46161 17.8742 9.49195 18.1421 9.51416 18.2388C9.57308 18.4949 9.78821 18.9347 9.95452 19.139C10.2798 19.5386 10.8144 19.8654 11.288 19.9542C11.6544 20.0228 16.895 20.011 17.2202 19.9408C17.8887 19.7965 18.4687 19.3269 18.7677 18.6881C19.009 18.1724 19 18.3499 19 14.1367C19 10.3588 18.9985 10.2861 18.9232 10.1559C18.8811 10.0829 18.7978 9.98621 18.7383 9.94101C18.6355 9.86284 18.5782 9.85819 17.584 9.84729L16.5379 9.83576L16.5131 9.22221C16.4994 8.88474 16.4628 8.5127 16.4318 8.3955C16.3338 8.02537 16.1475 7.69615 15.8637 7.39185C15.649 7.16155 15.5255 7.0681 15.251 6.92816C15.062 6.83178 14.8837 6.7529 14.8548 6.7529C14.8108 6.7529 14.8005 6.23799 14.7915 3.59819C14.7811 0.523999 14.7789 0.440082 14.7041 0.310846C14.662 0.237868 14.5787 0.141176 14.5192 0.0959745L14.4109 0.0137372L7.44259 0.00385309C0.866932 -0.005445 0.46677 -0.00216333 0.340811 0.0624545ZM13.6107 3.9498L13.6103 6.73337L13.2751 6.88889C12.6685 7.1703 12.1468 7.80327 12.0025 8.43281C11.9803 8.5295 11.9508 8.88474 11.9368 9.22221L11.9115 9.83576L10.8654 9.84729C9.87117 9.85819 9.81391 9.86284 9.71108 9.94101C9.65159 9.98621 9.56836 10.0829 9.52617 10.1559C9.4516 10.2848 9.44915 10.3692 9.43868 13.1698L9.4279 16.051H5.30588H1.18386V8.60861V1.16623H7.39744H13.611L13.6107 3.9498ZM4.23086 2.39335C4.16634 2.42198 3.95144 2.6222 3.75329 2.83825L3.39306 3.23111L3.26733 3.11867C2.95957 2.84344 2.44499 2.98924 2.34895 3.3789C2.28766 3.62776 2.35297 3.80607 2.6396 4.17217C2.96171 4.58359 3.06052 4.67091 3.24347 4.70587C3.53041 4.76073 3.63002 4.68997 4.29875 3.95664C4.64183 3.58038 4.94373 3.23377 4.96962 3.1863C4.99551 3.13887 5.0173 3.01917 5.01806 2.92029C5.02121 2.5034 4.60731 2.22637 4.23086 2.39335ZM6.46314 3.03749C6.29116 3.15298 6.20896 3.31054 6.20869 3.52521C6.20838 3.75239 6.30147 3.92577 6.48385 4.0377C6.60797 4.11388 6.67916 4.11584 9.33439 4.11584C11.9896 4.11584 12.0608 4.11388 12.1849 4.0377C12.5491 3.8142 12.5602 3.27561 12.2056 3.03749C12.1008 2.96709 11.9753 2.96385 9.33439 2.96385C6.69347 2.96385 6.56801 2.96709 6.46314 3.03749ZM4.23086 5.9485C4.16634 5.97713 3.95144 6.17736 3.75329 6.3934L3.39306 6.78626L3.26733 6.67383C2.95957 6.3986 2.44499 6.5444 2.34895 6.93406C2.28766 7.18292 2.35297 7.36122 2.6396 7.72732C2.96171 8.13875 3.06052 8.22606 3.24347 8.26103C3.53041 8.31588 3.63002 8.24513 4.29875 7.51179C4.64183 7.13553 4.94373 6.78892 4.96962 6.74145C4.99551 6.69403 5.0173 6.57432 5.01806 6.47544C5.02121 6.05855 4.60731 5.78152 4.23086 5.9485ZM6.46314 6.59264C6.29116 6.70813 6.20896 6.86569 6.20869 7.08036C6.20838 7.30754 6.30147 7.48093 6.48385 7.59285C6.60625 7.66798 6.67916 7.67099 8.3755 7.67099C10.1221 7.67099 10.1412 7.67013 10.2741 7.58578C10.4569 7.46975 10.5426 7.30778 10.5423 7.07896C10.542 6.86577 10.4594 6.70785 10.2879 6.59264C10.1843 6.52314 10.0771 6.519 8.3755 6.519C6.6739 6.519 6.56666 6.52314 6.46314 6.59264ZM14.746 7.97494C14.9681 8.09015 15.161 8.29591 15.2645 8.52794C15.323 8.65901 15.3355 8.78738 15.3362 9.26299L15.337 9.83924H14.2247H13.1124V9.27151C13.1124 8.66229 13.1396 8.53806 13.3277 8.28685C13.4405 8.13613 13.6587 7.98025 13.8681 7.90078C14.0918 7.81585 14.5068 7.8509 14.746 7.97494ZM4.23086 9.50365C4.16634 9.53229 3.95144 9.73251 3.75329 9.94855L3.39306 10.3414L3.26733 10.229C2.95957 9.95375 2.44499 10.0995 2.34895 10.4892C2.28766 10.7381 2.35297 10.9164 2.6396 11.2825C2.96171 11.6939 3.06052 11.7812 3.24347 11.8162C3.53041 11.871 3.63002 11.8003 4.29875 11.0669C4.64183 10.6907 4.94373 10.3441 4.96962 10.2966C4.99551 10.2492 5.0173 10.1295 5.01806 10.0306C5.02121 9.6137 4.60731 9.33668 4.23086 9.50365ZM6.46314 10.1478C6.20965 10.318 6.12565 10.6901 6.28249 10.9481C6.43292 11.1955 6.53901 11.2261 7.24402 11.2261C7.80888 11.2261 7.89058 11.2177 8.00419 11.148C8.36833 10.9245 8.37945 10.3859 8.0249 10.1478C7.92797 10.0827 7.83719 10.0742 7.24402 10.0742C6.65085 10.0742 6.56007 10.0827 6.46314 10.1478ZM11.9292 11.861C11.9417 12.6535 11.9482 12.7199 12.0262 12.8474C12.1389 13.0316 12.2995 13.1209 12.5179 13.1209C12.7363 13.1209 12.8969 13.0316 13.0096 12.8474C13.0876 12.7199 13.0941 12.6535 13.1066 11.861L13.1199 11.0113H14.2247H15.3295L15.3429 11.861C15.355 12.6268 15.3639 12.7235 15.433 12.8404C15.5414 13.024 15.7133 13.1209 15.9301 13.1209C16.15 13.1209 16.3103 13.032 16.4232 12.8474C16.5012 12.7199 16.5077 12.6535 16.5202 11.861L16.5336 11.0113H17.1818H17.8301L17.8293 14.4981C17.8285 17.8038 17.8247 17.9931 17.7576 18.1436C17.6551 18.3735 17.4626 18.5802 17.2391 18.7003L17.0438 18.8053H14.2247H11.4056L11.2104 18.7003C10.9868 18.5802 10.7943 18.3735 10.6918 18.1436C10.6247 17.9931 10.6209 17.8038 10.6201 14.4981L10.6193 11.0113H11.2676H11.9159L11.9292 11.861Z" fill="#A7B3C3"/>
</svg>
