<svg width="43" height="28" viewBox="0 0 43 28" fill="none" xmlns="http://www.w3.org/2000/svg">
<path fill-rule="evenodd" clip-rule="evenodd" d="M20.3218 0.0424596C17.4551 0.488604 15.2206 2.83688 14.9264 5.71245C14.8065 6.88376 14.9881 7.96897 15.4804 9.02273C16.7765 11.7971 19.8929 13.2809 22.8317 12.5227C23.4456 12.3643 24.3635 11.9505 24.8626 11.6071C26.089 10.7633 27.0314 9.40006 27.441 7.87735C27.625 7.19311 27.6244 5.50363 27.44 4.81737C26.684 2.00469 24.3444 0.118455 21.4722 0.00599539C21.0695 -0.00976155 20.5519 0.00662307 20.3218 0.0424596ZM19.9732 14.553C14.5457 15.1651 10.3081 19.434 9.68557 24.9168C9.53643 26.2299 9.63014 26.6756 10.1345 27.0522C10.3268 27.1958 10.3402 27.1959 21.181 27.2126L32.0349 27.2292L32.3138 27.0731C32.5074 26.9647 32.6443 26.8127 32.7617 26.5759C32.9298 26.2367 32.9303 26.2295 32.8479 25.2861C32.8022 24.7643 32.7162 24.1021 32.6567 23.8145C32.4983 23.0484 32.04 21.7111 31.6847 20.9785C30.7872 19.1278 29.122 17.2911 27.3636 16.2122C25.173 14.8683 22.4997 14.268 19.9732 14.553Z" fill="#7452D6"/>
<path fill-rule="evenodd" clip-rule="evenodd" d="M33.6287 3.58907C32.6102 3.80416 31.5225 4.48986 30.9032 5.30713C30.0478 6.43591 29.7289 7.8166 30.0094 9.1772C30.574 11.916 33.4012 13.5687 36.0689 12.7194C38.7798 11.8564 40.1297 8.79729 38.9326 6.22968C37.9946 4.21781 35.8074 3.12884 33.6287 3.58907ZM33.2171 14.3934C32.5188 14.5194 31.5788 14.8335 30.9472 15.1515C30.6772 15.2874 30.4564 15.4127 30.4564 15.4299C30.4564 15.4471 30.7335 15.7406 31.072 16.0822C32.8531 17.8786 34.1782 20.3452 34.7114 22.857C34.7969 23.2597 34.8775 23.6283 34.8905 23.6762C34.9091 23.7445 35.6889 23.7634 38.4922 23.7634C42.0642 23.7634 42.0708 23.7631 42.3811 23.6065C42.9917 23.2983 43.1146 22.7797 42.9054 21.3926C42.7239 20.1884 42.2277 18.9232 41.5289 17.8828C40.8164 16.822 39.3222 15.5724 38.1005 15.0156C36.6494 14.3543 34.7638 14.1141 33.2171 14.3934Z" fill="#7452D6"/>
<path fill-rule="evenodd" clip-rule="evenodd" d="M9.37129 3.52266C10.3898 3.73775 11.4775 4.42346 12.0968 5.24073C12.9522 6.36951 13.2711 7.75019 12.9906 9.1108C12.426 11.8496 9.59879 13.5023 6.93106 12.653C4.22024 11.79 2.8703 8.73089 4.06741 6.16327C5.00537 4.15141 7.19258 3.06243 9.37129 3.52266ZM9.78286 14.327C10.4812 14.453 11.4212 14.767 12.0528 15.0851C12.3228 15.221 12.5436 15.3463 12.5436 15.3635C12.5436 15.3807 12.2665 15.6742 11.928 16.0158C10.1469 17.8122 8.82175 20.2788 8.2886 22.7906C8.20312 23.1932 8.12252 23.5619 8.10948 23.6098C8.09094 23.6781 7.31111 23.697 4.50777 23.697C0.935823 23.697 0.9292 23.6967 0.618941 23.5401C0.008255 23.2319 -0.114593 22.7133 0.0945702 21.3262C0.276054 20.122 0.772326 18.8567 1.47107 17.8164C2.18362 16.7556 3.67781 15.506 4.89946 14.9492C6.35056 14.2879 8.23624 14.0477 9.78286 14.327Z" fill="#7452D6"/>
</svg>
