<svg width="16" height="20" viewBox="0 0 16 20" fill="none" xmlns="http://www.w3.org/2000/svg">
<path fill-rule="evenodd" clip-rule="evenodd" d="M6.95492 0.0643099C5.27778 0.399847 3.87513 1.40748 3.12532 2.81533C2.41249 4.15376 2.34834 5.73844 2.95149 7.10653C3.62119 8.62539 5.03866 9.76867 6.75606 10.175C7.37552 10.3216 8.7424 10.3049 9.37423 10.1431C11.2676 9.65818 12.6812 8.35071 13.2676 6.54183C13.4115 6.09795 13.4287 5.9548 13.4319 5.17194C13.4347 4.48687 13.4114 4.21332 13.3239 3.90762C12.7892 2.03929 11.3351 0.642491 9.40535 0.143556C8.82442 -0.00664347 7.52038 -0.0488332 6.95492 0.0643099ZM8.75901 1.84927C8.93308 1.88312 9.30135 2.01256 9.57727 2.13698C10.5336 2.56812 11.2995 3.50305 11.4987 4.48242C11.5982 4.97176 11.5393 5.78525 11.3715 6.23997C11.0799 7.02972 10.3489 7.80062 9.54818 8.16295C6.82482 9.39529 3.81664 7.0622 4.56531 4.29832C4.88299 3.12555 5.91988 2.15012 7.14709 1.86952C7.54398 1.77883 8.34438 1.76873 8.75901 1.84927ZM7.37308 11.553C5.46894 11.6808 3.75297 12.4299 2.35132 13.7451C0.868681 15.1363 0.0169082 16.9671 0.00107822 18.7968C-0.00405906 19.3913 0.00334818 19.4305 0.15663 19.6208C0.491569 20.0368 -0.107701 20.0087 8.08112 19.9923C15.3968 19.9776 15.4294 19.977 15.5936 19.8612C15.9621 19.6015 16.0054 19.4885 15.9995 18.8023C15.9845 17.0526 15.1841 15.2525 13.8131 13.8849C12.1494 12.2254 9.8355 11.3875 7.37308 11.553ZM9.07555 13.416C10.5866 13.6371 12.1525 14.5863 13.0372 15.8172C13.4827 16.4372 13.8901 17.3456 14.024 18.0176L14.0605 18.2009H8.0061H1.95169L2.03102 17.8484C2.56661 15.467 4.75043 13.6263 7.36513 13.3524C7.86351 13.3002 8.42765 13.3212 9.07555 13.416Z" fill="#A7B3C3"/>
</svg>
