<svg width="20" height="20" viewBox="0 0 20 20" fill="none" xmlns="http://www.w3.org/2000/svg">
<path fill-rule="evenodd" clip-rule="evenodd" d="M0.671828 0.0480849C0.584989 0.0711517 0.42735 0.166271 0.321577 0.259389C-0.014208 0.555046 8.80239e-05 0.364808 8.80239e-05 4.53996C8.80239e-05 7.21405 0.0137032 8.27011 0.0500813 8.41451C0.118711 8.68719 0.41765 8.9862 0.690252 9.05485C0.834615 9.09124 1.89039 9.10486 4.56378 9.10486C8.73586 9.10486 8.5478 9.11894 8.84206 8.78452C8.94094 8.6722 9.02982 8.51563 9.05773 8.40472C9.12453 8.13949 9.12453 0.962631 9.05773 0.697405C9.02982 0.586496 8.94094 0.429923 8.84206 0.31761C8.54721 -0.0174983 8.7405 -0.00332616 4.53429 0.00165322C2.24711 0.00437698 0.769347 0.022124 0.671828 0.0480849ZM11.564 0.0480849C11.4772 0.0711517 11.3195 0.166271 11.2137 0.259389C10.878 0.555046 10.8923 0.364808 10.8923 4.53996C10.8923 7.21405 10.9059 8.27011 10.9422 8.41451C11.0109 8.68719 11.3098 8.9862 11.5824 9.05485C11.7268 9.09124 12.7826 9.10486 15.4559 9.10486C19.628 9.10486 19.44 9.11894 19.7342 8.78452C19.8331 8.6722 19.922 8.51563 19.9499 8.40472C20.0167 8.13949 20.0167 0.962631 19.9499 0.697405C19.922 0.586496 19.8331 0.429923 19.7342 0.31761C19.4394 -0.0174983 19.6327 -0.00332616 15.4265 0.00165322C13.1393 0.00437698 11.6615 0.022124 11.564 0.0480849ZM7.27572 4.55106V7.27483H4.55267H1.82963V4.55106V1.8273H4.55267H7.27572V4.55106ZM18.1679 4.55106V7.27483H15.4448H12.7218V4.55106V1.8273H15.4448H18.1679V4.55106ZM0.671828 10.9431C0.584989 10.9662 0.42735 11.0613 0.321577 11.1544C-0.014208 11.4501 8.80239e-05 11.2599 8.80239e-05 15.435C8.80239e-05 18.1091 0.0137032 19.1652 0.0500813 19.3096C0.118711 19.5822 0.41765 19.8813 0.690252 19.9499C0.834615 19.9863 1.89039 19.9999 4.56378 19.9999C8.73586 19.9999 8.5478 20.014 8.84206 19.6796C8.94094 19.5673 9.02982 19.4107 9.05773 19.2998C9.12453 19.0346 9.12453 11.8577 9.05773 11.5925C9.02982 11.4816 8.94094 11.325 8.84206 11.2127C8.54721 10.8776 8.7405 10.8917 4.53429 10.8967C2.24711 10.8994 0.769347 10.9172 0.671828 10.9431ZM14.913 10.9407C14.2139 11.0291 13.4732 11.3077 12.8868 11.7031C12.511 11.9564 11.9988 12.4629 11.7408 12.8362C10.6375 14.4326 10.6388 16.4614 11.7439 18.0605C11.9973 18.4272 12.5472 18.9697 12.9048 19.206C14.2472 20.0927 15.9283 20.2265 17.3372 19.5589C18.3501 19.079 19.0769 18.3537 19.5508 17.3499C20.0044 16.3894 20.0992 15.3316 19.8264 14.2758C19.7146 13.8428 19.344 13.0803 19.0716 12.7224C18.3031 11.7129 17.1772 11.0805 15.8916 10.936C15.457 10.8872 15.3317 10.8878 14.913 10.9407ZM7.27572 15.4461V18.1699H4.55267H1.82963V15.4461V12.7224H4.55267H7.27572V15.4461ZM16.0192 12.7862C16.7902 12.9475 17.506 13.5015 17.8615 14.2119C18.4035 15.2953 18.2109 16.5019 17.3579 17.3654C16.3017 18.4348 14.5976 18.4341 13.5276 17.3639C12.4582 16.2941 12.4568 14.5958 13.5243 13.5333C14.1965 12.8644 15.1001 12.5938 16.0192 12.7862Z" fill="#2C67FF"/>
</svg>
