<svg width="22" height="18" viewBox="0 0 22 18" fill="none" xmlns="http://www.w3.org/2000/svg">
<path d="M1.46289 4.42857L9.79122 10.44C10.1381 10.6906 10.5458 10.8243 10.9629 10.8243C11.3799 10.8243 11.7876 10.6906 12.1346 10.44L20.4629 4.42857M3.574 17H18.3518C18.9117 17 19.4487 16.7592 19.8446 16.3305C20.2405 15.9019 20.4629 15.3205 20.4629 14.7143V3.28571C20.4629 2.67951 20.2405 2.09812 19.8446 1.66947C19.4487 1.24082 18.9117 1 18.3518 1H3.574C3.0141 1 2.47713 1.24082 2.08122 1.66947C1.68531 2.09812 1.46289 2.67951 1.46289 3.28571V14.7143C1.46289 15.3205 1.68531 15.9019 2.08122 16.3305C2.47713 16.7592 3.0141 17 3.574 17Z" stroke="#2D374F" stroke-width="1.7" stroke-linecap="round" stroke-linejoin="round"/>
</svg>
