<svg width="44" height="45" viewBox="0 0 44 45" fill="none" xmlns="http://www.w3.org/2000/svg">
<path fill-rule="evenodd" clip-rule="evenodd" d="M27.6958 0.613506C25.1213 1.04206 23.2418 3.55599 23.6029 6.08801C24.1879 10.1892 29.0835 11.838 32.0014 8.91656C33.2566 7.65973 33.7145 5.96992 33.2691 4.23813C33.037 3.33574 32.6635 2.70892 31.9249 1.9822C30.8106 0.885963 29.1967 0.363646 27.6958 0.613506ZM29.7561 2.98398C31.5032 3.82109 31.8555 6.14896 30.4418 7.51523C29.1108 8.80159 26.8594 8.41321 25.97 6.74392C25.7678 6.36419 25.7393 6.21009 25.7382 5.48856C25.7371 4.79447 25.7688 4.604 25.9412 4.26869C26.6838 2.82485 28.293 2.28297 29.7561 2.98398ZM23.2991 11.3286C21.6476 11.6277 20.005 12.6744 19.073 14.0216C18.7215 14.5295 18.26 15.5374 18.1243 16.0934C17.6663 17.9694 17.6649 22.3831 18.1219 24.1072C18.2285 24.5092 18.7411 25.098 19.1947 25.3392L19.5554 25.5311L30.5906 25.5744L41.6257 25.6177L36.6508 34.2104L31.676 42.8031H26.9322H22.1884L22.2499 42.3486C22.5417 40.1941 22.4121 36.7562 21.9833 35.271C21.264 32.7798 18.885 30.8242 16.3383 30.6306C15.8304 30.592 15.6797 30.6124 15.4635 30.749C15.3198 30.8398 14.4254 31.5632 13.4759 32.3566C12.5264 33.15 11.7123 33.7992 11.6667 33.7992C11.621 33.7992 10.7916 33.1233 9.82345 32.2971C8.85523 31.4711 7.97755 30.7504 7.87298 30.6955C7.61902 30.5624 7.1474 30.572 6.40894 30.7254C3.94253 31.2377 1.96089 33.1291 1.37444 35.5307C0.836041 37.7354 0.935467 42.4813 1.54639 43.7402C1.81768 44.299 2.28607 44.661 2.9111 44.7947C3.23471 44.8638 7.43663 44.8835 17.8142 44.8644L32.2666 44.8377L32.7134 44.5914C32.9591 44.456 33.2493 44.2253 33.3581 44.079C33.4669 43.9326 35.8196 39.9008 38.5864 35.1195C42.2875 28.7234 43.6419 26.3104 43.7114 25.9882C43.9224 25.0097 43.4318 24.062 42.4965 23.6411C42.1628 23.4909 41.8739 23.459 40.5481 23.4264L38.9915 23.388L39.0518 22.8578C39.2797 20.8572 39.2608 18.4497 39.0042 16.8055C38.5384 13.8201 36.2144 11.6011 33.1808 11.2454C32.9056 11.2131 32.5994 11.2282 32.4608 11.281C32.3281 11.3315 31.3769 12.0779 30.347 12.9397L28.4744 14.5066L27.2363 13.4669C26.5553 12.8951 25.7434 12.2072 25.4322 11.9382C24.5506 11.1761 24.3917 11.1308 23.2991 11.3286ZM25.9479 15.1006C28.0469 16.8784 28.2836 17.0256 28.7777 16.8605C28.899 16.82 29.9237 16.013 31.0547 15.0672L33.111 13.3476L33.4723 13.405C33.6711 13.4366 34.122 13.6004 34.4743 13.7688C35.7053 14.3575 36.5941 15.5224 36.8899 16.9347C37.1599 18.2242 37.1486 21.732 36.8697 23.1719L36.8236 23.4099H35.7322H34.641L34.7052 20.9428C34.7754 18.2383 34.7576 18.101 34.3027 17.8337C33.9658 17.6358 33.5448 17.7057 33.26 18.007C33.0576 18.2211 33.0482 18.2894 32.9933 19.9321C32.962 20.8687 32.9326 22.0345 32.928 22.5225L32.9196 23.4099H28.4794C24.9862 23.4099 24.0387 23.3868 24.0373 23.3017C24.0362 23.2422 23.9984 22.0936 23.9532 20.7494C23.8636 18.0808 23.8446 17.9892 23.3355 17.7795C22.9894 17.6369 22.5863 17.7564 22.3503 18.0716C22.1812 18.2974 22.169 18.4124 22.1886 19.5859C22.2003 20.2844 22.2342 21.4305 22.2638 22.1329L22.3176 23.4099H21.2271H20.1367L20.0852 23.0853C19.8282 21.463 19.7922 19.4047 19.9929 17.7933C20.1986 16.1411 20.5409 15.3748 21.4587 14.5116C22.0731 13.9338 23.1735 13.3846 23.7344 13.376C23.8371 13.3743 24.7459 14.0824 25.9479 15.1006ZM10.527 20.081C9.65995 20.2901 8.89919 20.7182 8.22672 21.3754C6.33702 23.2222 6.22149 26.041 7.95073 28.1047C8.41669 28.6609 9.41548 29.3069 10.2005 29.56C11.0917 29.8474 12.2475 29.8475 13.1455 29.5604C15.5466 28.7926 17.0256 26.323 16.5178 23.9294C15.9338 21.1764 13.2184 19.432 10.527 20.081ZM12.857 22.3191C15.0039 23.2964 15.0266 26.325 12.8951 27.3983C12.6158 27.5389 12.3006 27.6066 11.7971 27.6341C11.1654 27.6686 11.0342 27.6474 10.5529 27.4326C9.86881 27.1273 9.22899 26.455 9.01194 25.8135C8.58037 24.5376 9.07471 23.1245 10.1775 22.4818C11.0354 21.9819 11.9891 21.9239 12.857 22.3191ZM9.14976 34.4904C11.3152 36.3349 11.48 36.4325 12.0322 36.1974C12.1956 36.1279 13.2241 35.3217 14.318 34.4059L16.3068 32.7407L16.6687 32.7982C17.3233 32.9021 18.2445 33.4142 18.8371 34.0035C19.8357 34.9965 20.1421 35.9207 20.2852 38.3715C20.3538 39.5466 20.2875 41.3811 20.1421 42.327L20.0756 42.7599H18.9937H17.9118L17.9493 40.5521C18.0073 37.1486 18.0229 37.3653 17.698 37.0767C17.3477 36.7654 16.9556 36.7513 16.5964 37.0371C16.3537 37.2303 16.3324 37.2953 16.2775 38.0107C16.2451 38.4323 16.2147 39.5955 16.2099 40.5954C16.2051 41.5954 16.1775 42.5012 16.1487 42.6083L16.0962 42.8031H11.6661H7.23603L7.22794 42.3486C7.2235 42.0987 7.19415 40.8681 7.16264 39.6143L7.10544 37.3345L6.81012 37.0722C6.55363 36.8443 6.46788 36.8161 6.15732 36.8576C5.91181 36.8903 5.73411 36.9812 5.59011 37.1476L5.38046 37.3899L5.43601 40.0992L5.49155 42.8084L4.4266 42.7842L3.36174 42.7599L3.25108 41.9807C3.10795 40.9726 3.09236 38.3272 3.22304 37.2189C3.45611 35.2424 4.11091 34.0995 5.461 33.3127C5.93113 33.0388 6.6602 32.7674 6.93793 32.7631C7.04954 32.7613 7.89545 33.4219 9.14976 34.4904Z" fill="#7452D6" stroke="#6C6C6C" stroke-width="0.2"/>
</svg>
