<svg width="22" height="19" viewBox="0 0 22 19" fill="none" xmlns="http://www.w3.org/2000/svg">
<path fill-rule="evenodd" clip-rule="evenodd" d="M6.60535 0.869479C4.18298 1.59872 3.72127 1.76171 3.60079 1.92962C3.49673 2.07481 3.27818 3.21125 2.78778 6.15665C2.41888 8.37233 2.09925 10.2667 2.07741 10.3664C2.03953 10.5397 2.0029 10.5477 1.24734 10.5477C0.478501 10.5477 0.450602 10.5542 0.227171 10.7832C-0.113829 11.1328 -0.0648676 11.6262 0.333267 11.8517C0.42954 11.9063 0.802605 11.9706 1.16231 11.9946L1.81633 12.0383L2.69009 14.0264C3.5868 16.0669 3.66515 16.1876 4.09307 16.1876C4.22267 16.1876 4.24114 16.221 4.19359 16.3689C4.09763 16.6673 4.14141 17.349 4.27807 17.6853C4.4369 18.0762 4.89107 18.5672 5.28795 18.7772C6.694 19.521 8.38831 18.2979 8.22131 16.6596L8.17321 16.1876H11H13.8268L13.7787 16.6596C13.71 17.3333 13.9035 17.8828 14.3823 18.3737C15.3976 19.4146 17.1 19.0854 17.6961 17.7328C17.8541 17.3746 17.9094 16.6893 17.8064 16.3689C17.7589 16.221 17.7773 16.1876 17.9069 16.1876C18.3348 16.1876 18.4132 16.0669 19.3099 14.0264L20.1837 12.0383L20.8377 11.9946C21.1974 11.9706 21.5705 11.9063 21.6667 11.8517C22.0649 11.6262 22.1138 11.1328 21.7728 10.7832C21.5498 10.5546 21.5204 10.5477 20.7636 10.5477H19.984L18.5471 6.68487C17.6338 4.22966 17.0475 2.76167 16.9382 2.65636C16.7759 2.49998 16.6738 2.49079 15.1209 2.49184L13.4756 2.49297L12.9742 2.9299L12.4729 3.36675L12.0684 2.82806C11.8459 2.53172 11.3343 1.8451 10.9315 1.30214C10.1431 0.23934 9.89338 -0.0110716 9.63372 0.00036936C9.54232 0.00439787 8.1795 0.395485 6.60535 0.869479ZM10.4892 3.02908C11.9072 4.95962 12.007 5.06895 12.351 5.06895C12.6359 5.06895 12.8275 4.94367 13.6133 4.24311L14.0427 3.8604H15.0278C15.8929 3.8604 16.0195 3.87756 16.0671 4.0014C16.3772 4.80718 18.4174 10.3002 18.4462 10.4067C18.4824 10.5403 18.0883 10.5477 10.9636 10.5477H3.4429L3.48683 10.3262C3.51096 10.2043 3.79915 8.49117 4.12726 6.51922C4.48649 4.35978 4.76061 2.91894 4.81649 2.8963C4.99009 2.82604 9.23134 1.54337 9.31032 1.53724C9.35355 1.53386 9.88403 2.20517 10.4892 3.02908ZM7.09394 6.54323C6.2994 7.35779 6.20603 7.48324 6.20603 7.73655C6.20603 8.20821 6.65109 8.5491 7.08325 8.4085C7.1829 8.37603 7.4861 8.13134 7.75692 7.86474L8.24936 7.37995L8.74888 7.87167C9.30003 8.41423 9.54845 8.52146 9.9043 8.37039C10.1871 8.25035 10.2927 8.07261 10.2927 7.71681C10.2927 7.48872 10.174 7.33177 9.40479 6.54323C8.62109 5.73978 8.48553 5.63295 8.24936 5.63295C8.0132 5.63295 7.87763 5.73978 7.09394 6.54323ZM13.9804 7.96327C13.3479 8.61162 14.2364 9.56606 14.8881 8.93841C15.2178 8.62081 15.1546 8.05126 14.7666 7.84564C14.4369 7.6708 14.2364 7.70078 13.9804 7.96327ZM18.0873 13.3677L17.4873 14.7374H11H4.51274L3.91271 13.3677L3.3126 11.998H11H18.6874L18.0873 13.3677ZM6.64181 16.3854C6.91837 16.6689 6.91145 17.1615 6.62767 17.3903C6.27142 17.6776 5.80224 17.6031 5.6137 17.2292C5.44316 16.8912 5.4724 16.6856 5.72844 16.4231C6.02158 16.1226 6.37146 16.1082 6.64181 16.3854ZM16.2716 16.4231C16.5276 16.6856 16.5568 16.8912 16.3863 17.2292C16.1978 17.6031 15.7286 17.6776 15.3723 17.3903C15.2107 17.26 15.1652 17.1531 15.1652 16.9033C15.1652 16.2385 15.816 15.9561 16.2716 16.4231Z" fill="#A7B3C3"/>
</svg>
