<svg width="20" height="20" viewBox="0 0 20 20" fill="none" xmlns="http://www.w3.org/2000/svg">
<path fill-rule="evenodd" clip-rule="evenodd" d="M9.24172 0.0598626C7.60329 0.318402 6.24845 1.31459 5.52197 2.79495C5.2211 3.40794 5.06441 3.95928 5.01783 4.56856L4.98555 4.99134L3.60351 5.00432C2.84342 5.01145 2.22148 5.02814 2.22148 5.04142C2.22148 5.0547 1.71206 8.11285 1.08944 11.8372C0.0217729 18.2238 -0.0394279 18.6241 0.0128692 18.8761C0.125682 19.4193 0.528502 19.8356 1.04898 19.947C1.22206 19.984 3.92136 20 10 20C16.0786 20 18.7779 19.984 18.951 19.947C19.4715 19.8356 19.8743 19.4193 19.9871 18.8761C20.0394 18.6241 19.9782 18.2238 18.9106 11.8372C18.2879 8.11285 17.7785 5.0547 17.7785 5.04142C17.7785 5.02814 17.1566 5.01145 16.3965 5.00432L15.0145 4.99134L14.9822 4.56856C14.7649 1.72516 12.0753 -0.387273 9.24172 0.0598626ZM10.8561 1.77617C11.7098 1.99556 12.5946 2.71764 12.977 3.50707C13.1967 3.9606 13.3249 4.4295 13.3259 4.7839L13.3267 5.01575H10H6.67334L6.67407 4.7839C6.67515 4.42921 6.80327 3.9608 7.0245 3.50268C7.38847 2.74888 8.27586 2.00733 9.07049 1.79296C9.64992 1.63658 10.2896 1.63057 10.8561 1.77617ZM5.01001 7.50499V8.33473H5.84167H6.67334V7.50499V6.67524H10H13.3267V7.50499V8.33473H14.1583H14.99V7.50499V6.67524H15.6749C16.0516 6.67524 16.3598 6.68656 16.3598 6.70043C16.3598 6.71429 16.7891 9.29465 17.3138 12.4347C17.8384 15.5747 18.2677 18.188 18.2677 18.2421C18.2677 18.3404 18.2568 18.3405 10 18.3405C1.74317 18.3405 1.73226 18.3404 1.73226 18.2421C1.73226 18.188 2.16155 15.5747 2.68623 12.4347C3.21092 9.29465 3.6402 6.71429 3.6402 6.70043C3.6402 6.68656 3.94841 6.67524 4.3251 6.67524H5.01001V7.50499ZM8.10865 9.32311C7.56669 9.86669 7.08805 10.3818 7.04504 10.4677C6.94681 10.664 6.94466 10.9821 7.0402 11.1831C7.08056 11.2679 7.56474 11.787 8.11618 12.3367L9.11883 13.3362L9.55951 12.8985L10.0002 12.4609L9.49865 11.9574L8.99711 11.4538L10.6372 11.4683L12.2772 11.4829L12.6077 11.6453C13.6417 12.1534 14.0402 13.3219 13.5241 14.332C13.3765 14.6208 13.0299 14.9848 12.7368 15.1587C12.3171 15.4076 12.2443 15.412 8.49762 15.412H5.01001V16.0465V16.681L8.3489 16.6806C10.2545 16.6804 11.8711 16.6592 12.1147 16.6314C13.3901 16.4856 14.4197 15.6593 14.8505 14.4358C15.0118 13.9775 15.0152 12.9571 14.857 12.4591C14.611 11.6846 14.0059 10.9605 13.2982 10.594C12.6112 10.2382 12.5288 10.2259 10.6653 10.2024L9.00684 10.1815L9.50354 9.68424L10.0002 9.18703L9.57106 8.76088C9.33506 8.5265 9.13115 8.33473 9.11799 8.33473C9.10483 8.33473 8.65065 8.77953 8.10865 9.32311Z" fill="#A7B3C3"/>
</svg>
