<svg width="22" height="15" viewBox="0 0 22 15" fill="none" xmlns="http://www.w3.org/2000/svg">
<path fill-rule="evenodd" clip-rule="evenodd" d="M18.345 1.53004L18.2428 2.06008H17.4879C16.9208 2.06008 16.7434 2.10718 16.7747 2.24938C16.7977 2.35358 16.8895 2.97176 16.9789 3.62341L17.1414 4.80812L16.7192 6.99296C16.3299 9.00727 16.2802 9.17779 16.082 9.17779H15.867V6.75474V4.33169H13.3005H10.734V2.96873V1.60576H7.85777H4.98152V2.96873V4.33169H3.69827H2.41502V5.6886V7.04536L1.70747 7.08943L1 7.13334L2.08359 10.5408L3.16727 13.9482L11.7296 13.9868C16.439 14.008 20.292 14.0031 20.292 13.976C20.292 13.9489 20.4513 12.5734 20.646 10.9194C20.8407 9.26533 21 7.8174 21 7.70185C21 7.5386 20.8567 7.49968 20.3584 7.52739L19.7168 7.56313L19.6926 4.81161L19.6685 2.06008H19.3607C19.068 2.06008 19.053 2.03419 19.053 1.53004C19.053 1.02756 19.0372 1 18.7502 1C18.4824 1 18.4354 1.06164 18.345 1.53004ZM7.54802 3.4282V4.34199L6.59664 4.29898L5.64527 4.25597L5.61863 3.46636L5.59199 2.6766L6.50363 2.62738C7.00507 2.60042 7.44518 2.56393 7.48164 2.54636C7.5181 2.52879 7.54802 2.92557 7.54802 3.4282ZM10.0968 3.48681L10.1234 4.33169H9.14544H8.16752V3.52406C8.16752 3.07974 8.18407 2.68796 8.20433 2.65328C8.2246 2.6186 8.65276 2.60179 9.15571 2.61602L10.0703 2.64192L10.0968 3.48681ZM19.053 3.72593V4.33169H18.3979H17.7429L17.6457 3.85481C17.5922 3.59251 17.5485 3.31992 17.5485 3.24904C17.5485 3.17817 17.887 3.12017 18.3008 3.12017H19.053V3.72593ZM4.98152 6.2247V7.05762H4.00802H3.03452V6.2247V5.39178H4.00802H4.98152V6.2247ZM10.1145 6.2247V7.05762H7.85777H5.60102V6.2247V5.39178H7.85777H10.1145V6.2247ZM12.681 6.2247V7.05762H11.7075H10.734V6.2247V5.39178H11.7075H12.681V6.2247ZM15.2475 6.2247V7.05762H14.274H13.3005V6.2247V5.39178H14.274H15.2475V6.2247ZM19.053 6.45186C19.053 7.19044 19.0195 7.51679 18.9424 7.52785C18.8816 7.53663 18.6551 7.53951 18.4391 7.53421C17.9245 7.52149 17.5075 7.87465 17.2743 8.52039C17.1706 8.80737 17.0668 9.00969 17.0435 8.96986C17.0202 8.93004 17.1529 8.10877 17.3383 7.1447L17.6755 5.39178H18.3642H19.053V6.45186ZM6.11644 8.93125C6.98436 10.3372 6.52938 10.2386 12.1235 10.2326C15.8274 10.2285 17.11 10.1812 17.2546 10.0433C17.3607 9.94211 17.57 9.56972 17.7198 9.21565L17.9922 8.57203H19.142C20.0053 8.57203 20.2909 8.61928 20.2878 8.76133C20.2855 8.86552 20.1742 9.87063 20.0405 10.9951L19.7974 13.0395L11.6903 13.0781L3.58331 13.1168L2.82212 10.7117C2.40352 9.38875 2.06102 8.264 2.06102 8.21206C2.06102 8.16011 2.86044 8.11771 3.83757 8.11771H5.61412L6.11644 8.93125ZM7.54802 8.64775C7.54802 9.3568 7.30491 9.35831 6.86082 8.65184L6.53027 8.12589L7.03914 8.1218L7.54802 8.11771V8.64775ZM10.1145 8.64775V9.17779H9.14102H8.16752V8.64775V8.11771H9.14102H10.1145V8.64775ZM15.2475 8.64775V9.17779H12.9908H10.734V8.64775V8.11771H12.9908H15.2475V8.64775Z" fill="#A7B3C3" stroke="#A7B3C3" stroke-width="0.2"/>
</svg>
