<svg width="27" height="30" viewBox="0 0 27 30" fill="none" xmlns="http://www.w3.org/2000/svg">
<path fill-rule="evenodd" clip-rule="evenodd" d="M13.5546 0.820535C13.9614 0.9835 17.9907 3.35368 17.9386 3.39935C17.907 3.42694 15.2469 4.96872 12.0272 6.82552C6.92199 9.76965 6.1529 10.1915 6.01465 10.1232C5.54272 9.89042 1.45112 7.48261 1.44131 7.432C1.43069 7.37682 11.2202 1.67896 12.444 1.02798C12.9864 0.739459 13.2359 0.692908 13.5546 0.820535ZM22.6268 6.02618C23.9377 6.78221 24.9832 7.42706 24.95 7.45923C24.8776 7.52924 13.5519 14.0703 13.3198 14.176C13.1813 14.2392 12.8268 14.0587 10.8351 12.9105C9.55738 12.1739 8.48686 11.5478 8.4561 11.5192C8.41449 11.4804 20.1153 4.65164 20.2234 4.65164C20.2343 4.65164 21.3159 5.27016 22.6268 6.02618ZM26.1807 15.9602V22.5472L26.0147 22.8764C25.8522 23.1986 25.7485 23.2634 21.0903 25.9526C18.4732 27.4635 15.8755 28.9635 15.3176 29.2859L14.3032 29.8723V23.0262V16.18L20.1983 12.7766C23.4405 10.9046 26.1129 9.37312 26.137 9.37312C26.161 9.37312 26.1807 12.3373 26.1807 15.9602ZM2.70239 10.7588L5.08157 12.137L5.08187 13.6137C5.08209 14.9474 5.09603 15.1134 5.22587 15.3263C5.53092 15.8266 6.1062 15.9894 6.64578 15.7282C7.13563 15.4911 7.24607 15.2409 7.2924 14.264L7.33165 13.4374L9.71083 14.8095L12.09 16.1817V23.0336V29.8854L11.924 29.7808C11.8327 29.7233 9.26819 28.241 6.22505 26.487C3.18191 24.7329 0.6453 23.2604 0.5882 23.2148C0.531025 23.1691 0.423836 22.999 0.349989 22.8367C0.223467 22.5585 0.215721 22.1647 0.21417 15.9574C0.213285 12.336 0.237408 9.37482 0.267876 9.37688C0.298344 9.37895 1.3938 10.0008 2.70239 10.7588Z" fill="#7452D6"/>
</svg>
