<svg width="100%" height="100%" viewBox="0 0 26 26" fill="none" xmlns="http://www.w3.org/2000/svg">
<path d="M2.26752 20.2644L1.70132 11.4229L11.751 11.8802L9.74102 14.5226L16.0803 20.7727L12.318 24.2789L5.51485 18.0287L2.26752 20.2644Z" fill="#7452D6"/>
<path d="M23.4179 5.72339L23.4983 14.2592L18.3862 14.4282L13.4884 13.3029L15.6404 10.8639L9.65322 4.5247L13.6024 1.34458L20.0527 7.70757L23.4179 5.72339Z" fill="#7452D6"/>
<path fill-rule="evenodd" clip-rule="evenodd" d="M12.2885 1.44318C11.5039 2.06927 9.14975 4.16966 8.86305 4.4993C8.6854 4.70362 8.6781 4.73343 8.76868 4.88541C8.82268 4.97593 10.3632 6.37356 12.1923 7.99122L15.5176 10.9324L14.5607 11.8099C14.0318 12.295 13.5375 12.8075 13.4556 12.9559C13.1693 13.4746 13.4515 14.2272 14.0472 14.5331C14.3049 14.6654 14.4818 14.6938 15.397 14.75C17.1267 14.8563 19.9807 14.9382 21.9528 14.9383C23.7239 14.9383 23.8157 14.9325 24.0759 14.8043C24.2254 14.7306 24.4351 14.5599 24.5418 14.425C24.7244 14.1942 24.7373 14.1337 24.76 13.4043C24.7886 12.4911 24.5796 6.85641 24.4932 6.20994C24.4605 5.96473 24.3738 5.67413 24.3005 5.56415C23.9511 5.03942 23.065 4.81102 22.428 5.08148C22.2421 5.16042 21.7032 5.55984 21.1352 6.03973L20.1613 6.86263L17.2526 4.30587C14.0785 1.51585 13.3279 0.897949 13.1131 0.897949C13.0335 0.897949 12.6733 1.13608 12.2885 1.44318ZM16.3726 4.76286C18.1532 6.31278 19.727 7.65905 19.8701 7.75462C20.0542 7.8776 20.1736 7.91615 20.2796 7.88665C20.3618 7.86375 20.965 7.39038 21.6201 6.83474C22.6705 5.94373 22.8386 5.82439 23.0429 5.82439C23.3329 5.82439 23.4886 5.96959 23.5398 6.28784C23.5942 6.6253 23.788 11.8759 23.788 13.0124C23.788 13.679 23.7634 13.9551 23.7002 13.9993C23.652 14.033 23.4638 14.0795 23.2822 14.1025C22.729 14.1727 14.9157 13.9269 14.6257 13.8302C14.4117 13.7588 14.2847 13.5524 14.3387 13.3637C14.3618 13.283 14.8666 12.7768 15.4604 12.2389C16.0543 11.7008 16.577 11.2004 16.622 11.1266C16.667 11.0528 16.6817 10.9312 16.6548 10.8562C16.6277 10.7814 15.0868 9.38213 13.2304 7.74693L9.85522 4.77382L11.467 3.35932C12.3534 2.58137 13.0915 1.94482 13.107 1.94482C13.1226 1.94482 14.5921 3.21294 16.3726 4.76286ZM1.77212 10.8779C1.43297 10.9644 0.992568 11.3356 0.855435 11.6506C0.740068 11.9154 0.737751 12.0965 0.818571 14.5288C0.971784 19.1391 1.01609 19.7816 1.20596 20.1453C1.44456 20.6024 1.91726 20.8516 2.54022 20.8487C3.04052 20.8463 3.37377 20.6539 4.39065 19.7802L5.35599 18.9509L8.58598 21.7659C10.3625 23.3142 11.9341 24.6591 12.0786 24.7545C12.282 24.8889 12.3844 24.9185 12.5332 24.8858C12.7298 24.8425 16.493 21.5983 16.729 21.2687C16.807 21.1598 16.8305 21.0534 16.7971 20.9608C16.769 20.883 15.229 19.4829 13.3748 17.8496L10.0036 14.88L10.9603 14.0174C11.4865 13.543 11.9812 13.0446 12.0596 12.9098C12.4162 12.2967 12.0455 11.4204 11.329 11.183C11.0309 11.0842 9.64029 11.0111 6.04861 10.9056C2.52737 10.8021 2.081 10.7992 1.77212 10.8779ZM7.07631 11.798C9.18107 11.8648 10.926 11.9197 10.954 11.9201C11.0308 11.9212 11.2191 12.2672 11.2191 12.4072C11.2191 12.4822 10.7777 12.9336 10.0871 13.5649C9.46453 14.134 8.92274 14.661 8.88328 14.7361C8.82415 14.8483 8.84725 14.9139 9.01325 15.1055C9.12433 15.2337 10.6676 16.6215 12.4429 18.1897L15.6707 21.0408L14.0443 22.4671L12.4179 23.8934L9.02638 20.9333C7.16106 19.3053 5.56264 17.9531 5.47445 17.9286C5.24884 17.8658 5.1339 17.944 3.8511 19.0331C2.90367 19.8374 2.69308 19.9879 2.51403 19.9879C2.2055 19.9879 2.03915 19.8081 1.99176 19.4233C1.93221 18.9396 1.72549 12.7629 1.75211 12.2611C1.78827 11.5798 1.36345 11.6167 7.07631 11.798Z" fill="#7452D6" stroke="#7452D6" stroke-width="0.7"/>
</svg>
