<svg width="22" height="22" viewBox="0 0 22 22" fill="none" xmlns="http://www.w3.org/2000/svg">
<path fill-rule="evenodd" clip-rule="evenodd" d="M11.1246 1.45436C10.5035 1.9761 8.63975 3.72642 8.41278 4.00112C8.27214 4.17139 8.26636 4.19623 8.33807 4.32288C8.38082 4.39832 9.60043 5.56301 11.0484 6.91106L13.681 9.36206L12.9234 10.0933C12.5047 10.4975 12.1134 10.9247 12.0485 11.0483C11.8219 11.4806 12.0453 12.1077 12.5169 12.3626C12.7209 12.4729 12.861 12.4966 13.5855 12.5434C14.9548 12.632 17.2143 12.7002 18.7755 12.7003C20.1776 12.7003 20.2503 12.6955 20.4562 12.5886C20.5747 12.5272 20.7406 12.3849 20.8251 12.2725C20.9697 12.0802 20.9799 12.0298 20.9979 11.422C21.0205 10.661 20.855 5.96539 20.7867 5.42666C20.7608 5.22232 20.6921 4.98015 20.6341 4.8885C20.3575 4.45123 19.656 4.26089 19.1517 4.48627C19.0045 4.55206 18.5779 4.88491 18.1283 5.28482L17.3572 5.97057L15.0545 3.83994C12.5417 1.51492 11.9475 1 11.7774 1C11.7144 1 11.4292 1.19844 11.1246 1.45436ZM14.3579 4.22076C15.7675 5.51236 17.0134 6.63425 17.1267 6.7139C17.2724 6.81638 17.367 6.8485 17.4509 6.82392C17.516 6.80483 17.9935 6.41036 18.5121 5.94732C19.3436 5.20482 19.4767 5.10536 19.6385 5.10536C19.8681 5.10536 19.9913 5.22637 20.0319 5.49158C20.075 5.77279 20.2283 10.1483 20.2283 11.0954C20.2283 11.6509 20.2089 11.881 20.1588 11.9178C20.1207 11.9459 19.9717 11.9846 19.8279 12.0038C19.39 12.0623 13.2045 11.8575 12.9749 11.7769C12.8055 11.7174 12.7049 11.5453 12.7477 11.3882C12.766 11.3209 13.1656 10.8991 13.6357 10.4508C14.1058 10.0024 14.5197 9.58534 14.5553 9.52386C14.5909 9.46239 14.6026 9.36104 14.5812 9.29858C14.5598 9.23618 13.3399 8.07015 11.8703 6.70748L9.19825 4.22989L10.4742 3.05114C11.176 2.40285 11.7603 1.87239 11.7726 1.87239C11.7849 1.87239 12.9482 2.92916 14.3579 4.22076ZM2.79913 9.31664C2.53063 9.38875 2.18198 9.69803 2.07342 9.96052C1.98209 10.1812 1.98025 10.3321 2.04423 12.359C2.16553 16.2009 2.2006 16.7364 2.35092 17.0394C2.53981 17.4204 2.91403 17.6281 3.40721 17.6256C3.80328 17.6236 4.0671 17.4633 4.87213 16.7352L5.63636 16.0441L8.19343 18.39C9.59982 19.6802 10.8441 20.8009 10.9584 20.8804C11.1194 20.9925 11.2005 21.0171 11.3183 20.9898C11.4739 20.9538 14.4532 18.2503 14.64 17.9756C14.7017 17.8849 14.7204 17.7962 14.6939 17.719C14.6717 17.6542 13.4525 16.4875 11.9846 15.1264L9.31571 12.6517L10.0731 11.9329C10.4897 11.5375 10.8813 11.1222 10.9434 11.0099C11.2257 10.4989 10.9322 9.76875 10.365 9.57087C10.129 9.48856 9.02809 9.42764 6.18469 9.33969C3.39704 9.25342 3.04366 9.25101 2.79913 9.31664ZM6.99828 10.0834C8.66454 10.139 10.046 10.1848 10.0681 10.1851C10.1289 10.1861 10.278 10.4744 10.278 10.591C10.278 10.6535 9.92857 11.0297 9.3818 11.5558C8.88896 12.03 8.46003 12.4692 8.42879 12.5318C8.38199 12.6253 8.40028 12.68 8.53169 12.8397C8.61963 12.9465 9.84141 14.103 11.2469 15.4098L13.8021 17.7857L12.5146 18.9743L11.2271 20.1629L8.54208 17.6962C7.06537 16.3394 5.79996 15.2127 5.73014 15.1922C5.55153 15.1399 5.46054 15.2051 4.44499 16.1126C3.69493 16.7829 3.52822 16.9083 3.38647 16.9083C3.14222 16.9083 3.01053 16.7585 2.97301 16.4378C2.92587 16.0347 2.76222 10.8875 2.78328 10.4693C2.81191 9.90151 2.4756 9.9323 6.99828 10.0834Z" fill="#A7B3C3" stroke="#A7B3C3" stroke-width="0.7"/>
</svg>
